<?xml version="1.0" encoding="utf-8"?>
<!-- Svg Vector Icons : http://www.onlinewebfonts.com/icon -->
<!DOCTYPE svg PUBLIC "-//W3C//DTD SVG 1.1//EN" "http://www.w3.org/Graphics/SVG/1.1/DTD/svg11.dtd">
<svg version="1.1" xmlns="http://www.w3.org/2000/svg" xmlns:xlink="http://www.w3.org/1999/xlink" x="0px" y="0px" viewBox="0 0 1000 1000" enable-background="new 0 0 1000 1000" xml:space="preserve">
<metadata> Svg Vector Icons : http://www.onlinewebfonts.com/icon </metadata>
<g><g transform="translate(0.000000,511.000000) scale(0.100000,-0.100000)"><path d="M6061.6,3704.1c-479.2-195.5-893.3-364.2-916.3-377.6c-57.5-30.7-99.7-111.2-99.7-193.6c0-40.3,483.1-1261.3,1332.2-3369.9C7112-2054.2,7731.2-3585.7,7758-3641.3c47.9-107.3,118.9-159.1,214.7-159.1c88.2,0,1807.6,703.5,1870.9,764.8c115,111.2,199.4-122.7-1290.1,3569.2C7804,2393,7177.2,3936.1,7161.9,3959.1c-30.7,47.9-134.2,99.7-193.6,99.7C6949.1,4056.9,6540.8,3897.8,6061.6,3704.1z M7190.6,3071.6c63.3-82.4,70.9-161,19.2-210.9c-53.7-49.8-1372.5-584.6-1443.4-584.6c-92,0-164.9,187.8-99.7,254.9c15.3,15.3,310.5,141.9,657.5,281.8c345,139.9,655.6,264.5,686.2,277.9C7098.6,3129.1,7148.5,3123.3,7190.6,3071.6z M7409.1,2509.9c59.4-65.2,78.6-151.4,46-203.2c-42.2-61.3-1408.9-615.3-1477.9-598.1c-93.9,23-145.7,216.6-72.9,262.6c74.8,47.9,1376.3,569.3,1424.2,571.2C7355.5,2542.5,7391.9,2529.1,7409.1,2509.9z M7639.2,1942.5c15.3-15.3,38.3-55.6,51.8-90.1c51.8-122.7,42.2-128.4-736.1-444.7c-513.7-207-718.8-281.8-753.3-272.2c-80.5,19.2-134.2,207-72.8,258.8c47.9,40.3,1376.3,573.1,1431.9,573.1C7589.3,1969.4,7623.8,1957.9,7639.2,1942.5z M9264.7-2075.2c57.5-78.6,67.1-162.9,21.1-203.2c-55.6-46-1382.1-580.8-1447.2-582.7c-93.9,0-168.7,185.9-101.6,254.9c15.3,15.3,268.4,124.6,561.6,243.4c293.3,116.9,601.9,243.4,686.2,279.9C9161.2-2010.1,9216.8-2008.1,9264.7-2075.2z"/><path d="M211.3,3893.9C92.4,3830.7,100.1,4108.6,100.1,48.7c0-3642.1,0-3707.2,38.3-3766.7c74.8-122.7,51.8-120.8,1111.8-120.8c851.1,0,969.9,3.8,1027.4,30.7c132.3,63.3,122.7-245.4,122.7,3872.1v3730.3l-65.2,65.2l-65.2,65.2H1265.6C416.4,3922.7,255.4,3918.8,211.3,3893.9z M2063,2973.8c42.2-40.3,40.3-195.5-1.9-241.5c-28.8-32.6-78.6-34.5-805.1-34.5c-747.6,0-774.4,1.9-810.8,38.3c-46,46-51.8,164.9-7.7,226.2l28.8,42.2h784C1936.5,3004.5,2038.1,3000.6,2063,2973.8z M2059.2,2358.5c46-40.2,47.9-189.8,1.9-239.6c-28.8-32.6-78.6-34.5-805.1-34.5c-747.6,0-774.4,1.9-810.8,38.3c-46,46-51.8,164.9-7.7,226.2l28.8,42.2h778.3C1942.2,2391.1,2026.6,2387.2,2059.2,2358.5z M2059.2,1745.1c46-40.2,47.9-189.8,1.9-239.6c-28.8-32.6-80.5-34.5-812.8-34.5H466.2l-28.8,42.2c-44.1,61.3-38.3,180.2,7.7,226.2c36.4,36.4,63.3,38.3,808.9,38.3C1942.2,1777.7,2026.6,1773.8,2059.2,1745.1z M2036.1-2617.7c42.2-21.1,47.9-38.3,53.7-132.3c9.6-176.4,46-168.7-831.9-168.7c-730.3,0-751.4,1.9-801.3,40.3c-40.3,30.7-49.8,55.6-49.8,122.7s9.6,92,49.8,122.7c49.8,38.3,70.9,40.3,791.7,40.3C1804.2-2592.8,1999.7-2598.5,2036.1-2617.7z"/><path d="M2741.6,3890.1c-118.8-72.8-111.2,203.2-107.3-3860.6c5.7-3640.1,5.7-3707.2,44.1-3760.9c70.9-107.3,76.7-107.3,1115.6-107.3c1067.7,0,1054.3-1.9,1121.4,134.2c32.6,63.3,34.5,281.8,34.5,3728.3c0,2438.3-7.7,3684.2-19.2,3732.2c-11.5,38.3-46,92-78.6,118.8l-59.4,49.8h-998.7C2885.3,3922.7,2787.6,3920.8,2741.6,3890.1z M4612.4,2962.3c44.1-61.3,38.3-180.2-7.7-226.2c-36.4-36.4-63.3-38.3-810.8-38.3c-757.2,0-774.4,0-810.8,40.3c-46,49.8-42.2,207,5.8,243.4c24.9,17.3,218.5,23,812.8,23h782.1L4612.4,2962.3z M4604.8,2352.7c51.8-51.8,51.8-178.3,0-230c-36.4-36.4-63.3-38.3-808.9-38.3c-425.5,0-782.1,7.7-795.5,15.3c-36.4,23-65.2,120.8-53.7,180.2c26.8,115-1.9,111.2,845.3,111.2C4541.5,2391.1,4568.3,2389.2,4604.8,2352.7z M4604.8,1739.3c51.8-51.8,51.8-178.3,0-230c-36.4-36.4-63.3-38.3-808.9-38.3c-425.5,0-782.1,7.7-795.5,15.3c-36.4,23-67.1,122.7-53.7,176.4c30.7,118.9-3.8,115,847.3,115C4541.5,1777.7,4568.3,1775.8,4604.8,1739.3z M4595.2-2640.7c32.6-30.7,47.9-67.1,47.9-115s-15.3-84.3-47.9-115l-46-47.9h-755.2c-716.9,0-759.1,1.9-801.3,36.4c-65.2,53.7-65.2,199.3,0,253c42.2,34.5,84.3,36.4,801.3,36.4h755.2L4595.2-2640.7z"/></g></g>
</svg>